<?xml version="1.0" standalone="no"?>
<!DOCTYPE svg PUBLIC "-//W3C//DTD SVG 20010904//EN"
 "http://www.w3.org/TR/2001/REC-SVG-20010904/DTD/svg10.dtd">
<svg version="1.0" xmlns="http://www.w3.org/2000/svg"
 width="524.000000pt" height="695.000000pt" viewBox="0 0 524.000000 695.000000"
 preserveAspectRatio="xMidYMid meet">

<g transform="translate(0.000000,695.000000) scale(0.100000,-0.100000)"
fill="#000000" stroke="none">
<path d="M5007 6848 c-14 -40 -75 -214 -136 -386 -137 -386 -301 -915 -288
-929 7 -6 163 415 322 867 51 146 111 313 133 372 35 96 38 109 25 128 -8 11
-18 20 -23 20 -4 0 -19 -33 -33 -72z"/>
<path d="M5077 6737 c-61 -180 -138 -395 -233 -647 -48 -129 -120 -327 -160
-440 l-72 -205 -76 2 c-147 3 -366 62 -492 133 -40 22 -97 63 -129 91 l-57 52
-56 -27 c-81 -40 -238 -133 -297 -176 -105 -77 -164 -170 -97 -154 44 11 138
49 259 103 62 27 137 58 167 67 l55 17 88 -75 c49 -41 116 -93 150 -115 64
-42 180 -80 208 -70 14 6 13 11 -5 46 -11 22 -20 42 -20 43 0 2 56 4 124 5
143 2 155 -3 130 -58 -15 -32 -19 -34 -54 -31 -86 9 -191 -31 -203 -77 -10
-40 7 -44 71 -17 34 14 79 26 101 26 39 0 40 -1 35 -29 -5 -22 -1 -32 18 -45
22 -16 23 -16 29 14 4 16 12 37 19 45 16 19 74 35 132 35 51 0 78 7 78 21 0 5
-31 9 -68 9 -41 0 -75 5 -86 13 -17 13 -17 16 -3 44 9 17 24 33 32 37 30 11
94 6 188 -15 95 -21 146 -19 167 6 14 17 11 18 -135 40 -94 14 -205 41 -205
49 0 2 43 102 96 222 219 497 304 705 412 1001 30 80 30 82 12 111 -19 31 -57
62 -75 62 -5 0 -27 -51 -48 -113z"/>
<path d="M762 6191 c-259 -64 -476 -274 -614 -592 -79 -184 -127 -446 -113
-619 10 -115 47 -257 91 -346 65 -131 198 -254 330 -303 101 -38 109 -33 19
12 -110 55 -188 124 -254 222 -155 231 -185 569 -81 905 59 192 145 338 274
465 89 87 160 134 264 173 59 23 83 26 197 26 116 1 138 -2 202 -25 290 -106
451 -429 430 -863 -6 -113 -29 -263 -52 -336 -5 -17 -4 -21 6 -14 7 4 43 10
79 13 l65 6 22 78 c131 462 -58 983 -420 1156 -130 62 -298 78 -445 42z"/>
<path d="M1260 6156 c0 -2 28 -17 63 -35 210 -107 344 -312 393 -602 26 -157
9 -493 -31 -620 -4 -12 1 -19 17 -24 13 -4 44 -20 69 -36 25 -16 53 -29 62
-29 22 0 52 45 87 131 32 79 60 118 60 85 0 -11 11 -33 23 -50 54 -71 54 -71
-8 -128 -54 -49 -95 -111 -95 -143 0 -11 11 -15 43 -15 73 0 113 18 257 115
77 52 162 101 188 109 46 14 48 13 107 -21 100 -57 143 -74 181 -71 l36 3 -66
48 c-36 27 -66 52 -66 56 0 4 25 13 55 20 84 19 208 85 276 148 33 31 58 57
56 59 -5 6 -69 -18 -147 -53 -92 -43 -197 -73 -186 -54 3 5 42 30 85 55 70 40
101 70 87 84 -3 2 -17 -5 -33 -16 -109 -77 -234 -112 -423 -119 -138 -5 -215
1 -340 28 -49 10 -50 11 -50 47 0 20 4 42 8 48 7 10 168 41 267 51 40 4 55 1
75 -15 l25 -20 120 117 c86 84 136 125 177 144 99 47 100 47 232 -30 137 -79
219 -142 259 -199 25 -35 27 -44 17 -70 -6 -16 -35 -54 -65 -84 -50 -51 -83
-106 -71 -118 9 -9 68 21 117 60 89 70 139 194 106 262 -26 54 -95 133 -160
182 -180 136 -405 181 -550 110 -65 -31 -127 -97 -154 -162 -11 -28 -25 -46
-38 -49 -11 -2 -72 -15 -135 -29 -142 -31 -223 -45 -231 -40 -3 2 -9 45 -12
96 -25 375 -249 674 -564 751 -70 18 -123 28 -123 23z"/>
<path d="M870 5993 c0 -6 5 -35 10 -64 6 -30 20 -151 30 -269 11 -118 26 -255
32 -305 l13 -90 7 115 c13 190 -12 610 -36 610 -6 0 -21 3 -33 6 -13 4 -23 2
-23 -3z"/>
<path d="M550 5918 c-162 -98 -126 -282 100 -509 78 -79 165 -147 174 -138 3
2 -38 54 -91 114 -170 197 -222 283 -223 368 0 46 3 52 60 111 87 91 79 113
-20 54z"/>
<path d="M1146 5795 c-48 -114 -101 -310 -116 -428 -9 -76 -2 -204 11 -190 4
4 17 58 29 118 46 239 73 330 120 395 31 43 64 26 127 -65 l35 -50 -7 50 c-16
113 -66 177 -157 199 -25 6 -29 2 -42 -29z"/>
<path d="M320 5496 c0 -3 28 -20 62 -38 42 -22 107 -75 194 -160 117 -112 175
-158 200 -158 5 0 -6 15 -22 33 -17 17 -63 73 -102 123 -120 153 -190 203
-284 204 -27 0 -48 -2 -48 -4z"/>
<path d="M3770 5326 c-128 -35 -203 -98 -353 -299 -63 -84 -137 -173 -165
-198 l-51 -46 25 -12 c14 -6 46 -11 73 -11 66 0 121 38 211 144 89 106 143
141 203 133 31 -4 47 -13 62 -33 32 -44 64 -72 92 -79 35 -8 38 -2 22 47 -19
59 -91 131 -182 182 l-79 44 39 25 c21 14 77 39 126 56 48 17 100 37 115 45
26 15 26 15 -33 15 -33 0 -80 -6 -105 -13z"/>
<path d="M169 5248 c-15 -56 -7 -181 15 -235 21 -50 41 -58 168 -74 101 -12
227 0 278 26 32 16 43 43 13 29 -10 -4 -51 -10 -92 -12 -58 -3 -90 2 -157 22
-99 31 -106 40 -128 151 -26 127 -75 174 -97 93z"/>
<path d="M852 5147 c-32 -18 -50 -48 -58 -96 -7 -45 10 -82 48 -102 29 -15 77
10 103 54 26 43 26 124 0 143 -23 17 -63 17 -93 1z"/>
<path d="M3860 5111 c0 -5 14 -19 30 -31 33 -23 60 -68 60 -98 0 -14 9 -21 31
-26 45 -9 107 -7 113 3 7 11 -110 123 -151 144 -35 18 -83 23 -83 8z"/>
<path d="M1280 5070 c-273 -85 -426 -164 -542 -281 -78 -79 -89 -107 -62 -157
81 -151 371 -243 854 -272 1023 -61 2396 177 3348 582 146 62 188 88 70 44
-113 -43 -394 -125 -602 -177 -194 -48 -627 -139 -661 -139 -13 0 -5 14 29 50
49 52 69 90 60 114 -6 16 -47 36 -74 36 -31 0 -76 -46 -111 -115 -29 -56 -40
-67 -80 -84 -115 -50 -230 -71 -558 -101 l-214 -20 -33 39 c-89 104 -281 114
-458 24 -55 -28 -55 -26 16 -68 l33 -19 -140 -9 c-139 -8 -432 -3 -532 9 -33
4 -53 12 -53 20 0 7 21 31 47 53 40 34 45 41 29 47 -12 4 -46 -6 -95 -29 -139
-67 -237 -73 -348 -22 -58 26 -58 26 -33 40 42 23 92 27 145 11 49 -15 50 -15
76 10 44 42 134 64 265 64 63 0 114 4 114 9 0 16 -58 59 -104 76 -35 13 -64
16 -123 13 -76 -5 -113 -16 -348 -98 -112 -39 -201 -44 -260 -13 l-39 21 44
23 c25 13 130 57 234 99 l189 76 28 74 c28 76 35 110 22 110 -5 -1 -64 -19
-133 -40z"/>
<path d="M3260 5057 c0 -29 -76 -91 -164 -133 -112 -54 -158 -89 -136 -104 8
-5 38 -10 66 -10 123 0 279 139 259 231 -7 29 -25 41 -25 16z"/>
<path d="M4255 5026 c-31 -13 -95 -79 -95 -96 0 -15 87 -12 118 4 15 8 51 30
81 50 29 20 60 36 70 37 12 0 12 2 -4 9 -31 13 -136 11 -170 -4z"/>
<path d="M619 4923 c-40 -20 -152 -33 -291 -33 -71 0 -128 -3 -128 -8 0 -19
35 -55 66 -68 18 -8 56 -14 83 -14 93 0 279 75 296 118 7 20 4 21 -26 5z"/>
<path d="M513 4739 c-37 -14 -67 -37 -107 -80 -31 -33 -56 -63 -56 -67 1 -4
20 -29 43 -55 31 -35 47 -46 60 -41 15 5 14 10 -13 40 -16 19 -30 41 -30 48 0
33 79 117 148 155 34 19 6 19 -45 0z"/>
<path d="M4170 4524 c-84 -26 -524 -133 -695 -168 -846 -173 -1586 -200 -2230
-81 -99 18 -347 79 -390 95 -26 10 -27 9 -20 -17 10 -44 128 -284 186 -379
387 -641 1016 -983 1934 -1050 50 -4 96 -11 103 -17 20 -16 114 -163 165 -257
193 -357 307 -874 307 -1385 l0 -131 -67 -13 c-256 -50 -483 -165 -538 -272
-22 -42 -19 -44 23 -11 52 41 144 86 228 111 77 23 246 51 307 51 l37 0 0 -54
c0 -40 6 -60 22 -82 52 -66 99 -84 224 -84 93 0 151 16 171 47 22 34 13 36
-42 12 -63 -28 -190 -24 -251 8 l-39 20 3 254 c9 698 -104 1292 -330 1730 -23
46 -44 86 -46 90 -1 3 48 13 110 23 230 36 502 112 691 192 511 218 870 591
1040 1081 19 54 37 114 41 133 3 20 -5 6 -18 -31 -152 -422 -471 -764 -924
-989 -369 -184 -767 -269 -1197 -257 -362 11 -652 77 -940 217 -283 137 -519
333 -673 559 -70 102 -185 302 -178 309 9 9 100 -19 141 -43 57 -33 119 -102
205 -230 84 -124 156 -200 274 -287 376 -279 888 -427 1306 -379 171 20 151
30 -61 30 -108 0 -218 2 -245 6 -402 54 -703 188 -940 418 -130 124 -238 283
-292 427 l-10 25 432 0 c339 0 468 4 606 18 467 47 830 118 1261 247 155 46
358 116 368 126 7 7 -12 3 -59 -12z"/>
<path d="M5121 4424 c0 -11 3 -14 6 -6 3 7 2 16 -1 19 -3 4 -6 -2 -5 -13z"/>
<path d="M3652 2880 c-46 -45 -56 -104 -48 -288 16 -371 89 -743 235 -1207 28
-88 61 -192 73 -231 12 -42 29 -76 41 -83 10 -7 20 -11 22 -9 1 2 -24 93 -56
203 -125 424 -184 681 -215 935 -19 145 -25 563 -11 658 9 60 1 65 -41 22z"/>
<path d="M4328 1268 c6 -6 48 -14 94 -19 92 -8 190 -39 312 -98 145 -71 196
-134 196 -245 0 -72 -22 -116 -91 -182 -164 -153 -518 -279 -959 -341 -179
-24 -576 -24 -715 1 -184 33 -349 96 -423 163 l-37 33 60 -30 c116 -56 253
-91 440 -111 181 -19 611 4 642 35 4 4 -46 5 -112 1 -147 -8 -488 9 -610 30
-216 39 -366 118 -437 232 -21 35 -21 36 -3 70 45 83 162 164 405 280 80 38
152 78 160 88 14 17 13 17 -10 10 -14 -4 -41 -15 -60 -25 -19 -10 -91 -39
-160 -65 -364 -137 -490 -240 -515 -423 -37 -274 438 -482 1051 -458 429 16
880 118 1169 263 205 104 325 250 325 396 0 148 -145 279 -395 356 -139 43
-357 69 -327 39z"/>
<path d="M4213 1160 c-48 -10 -94 -32 -112 -54 -12 -14 -8 -16 37 -16 65 0
147 -17 194 -41 70 -36 86 -109 43 -195 -43 -85 -139 -173 -245 -224 l-65 -31
50 7 c181 24 371 101 460 184 58 55 105 136 105 181 0 35 -73 102 -145 134
-105 47 -244 70 -322 55z"/>
<path d="M2343 443 c12 -205 154 -326 457 -389 104 -21 451 -30 621 -15 150
13 373 45 464 66 l60 14 -90 -5 c-49 -3 -101 -8 -115 -10 -14 -3 -127 -7 -251
-11 -610 -16 -969 101 -1113 364 l-37 68 4 -82z"/>
</g>
</svg>
